<svg width="14" height="14" viewBox="0 0 14 14" fill="none" xmlns="http://www.w3.org/2000/svg">
<path d="M9.58592 8.83716C8.92799 9.67179 7.99557 10.2463 6.95418 10.4588C5.91278 10.6713 4.82978 10.508 3.8974 9.99781C2.96501 9.48766 2.24357 8.6637 1.86112 7.67217C1.47866 6.68065 1.45995 5.58569 1.80829 4.58168C2.15662 3.57766 2.84949 2.72953 3.76389 2.18782C4.67829 1.64611 5.75508 1.44585 6.80313 1.62262C7.85117 1.79939 8.80268 2.34174 9.48876 3.1534C10.1748 3.96505 10.5511 4.99352 10.5508 6.05623C10.5506 6.37324 10.5172 6.68935 10.451 6.99938" stroke="#828282" stroke-width="1.2" stroke-linecap="round" stroke-linejoin="round"/>
<path d="M9.2652 9.26556L12.44 12.4399" stroke="#828282" stroke-width="1.2" stroke-miterlimit="10" stroke-linecap="round"/>
</svg>
